HIERARCHY
ROOT Hips
{
	OFFSET 0.000000 0.000000 0.000000 
	CHANNELS 6 Xposition Yposition Zposition Zrotation Yrotation Xrotation
	JOINT LeftUpLeg
	{
		OFFSET 1.363060 -1.794630 0.839290 
		CHANNELS 3 Zrotation Yrotation Xrotation
		JOINT LeftLeg
		{
			OFFSET 2.448110 -6.726130 0.000000 
			CHANNELS 3 Zrotation Yrotation Xrotation
			JOINT LeftFoot
			{
				OFFSET 2.562200 -7.039590 0.000000 
				CHANNELS 3 Zrotation Yrotation Xrotation
				JOINT LeftToeBase
				{
					OFFSET 0.157640 -0.433110 2.322550 
					CHANNELS 3 Zrotation Yrotation Xrotation
					End Site
					{
						OFFSET 0.000000 0.000000 0.000000 
					}
				}
			}
		}
	}
	JOINT RightUpLeg
	{
		OFFSET -1.305520 -1.794630 0.839290 
		CHANNELS 3 Zrotation Yrotation Xrotation
		JOINT RightLeg
		{
			OFFSET -2.542530 -6.985550 0.000000 
			CHANNELS 3 Zrotation Yrotation Xrotation
			JOINT RightFoot
			{
				OFFSET -2.568260 -7.056230 0.000000 
				CHANNELS 3 Zrotation Yrotation Xrotation
				JOINT RightToeBase
				{
					OFFSET -0.164730 -0.452590 2.363150 
					CHANNELS 3 Zrotation Yrotation Xrotation
					End Site
					{
						OFFSET 0.000000 0.000000 0.000000 
					}
				}
			}
		}
	}
	JOINT Spine
	{
		OFFSET 0.028270 2.035590 -0.193380 
		CHANNELS 3 Zrotation Yrotation Xrotation
		JOINT Spine1
		{
			OFFSET 0.056720 2.048850 -0.042750 
			CHANNELS 3 Zrotation Yrotation Xrotation
			JOINT Neck1
			{
				OFFSET -0.054170 1.746240 0.172020 
				CHANNELS 3 Zrotation Yrotation Xrotation
				JOINT Head
				{
					OFFSET 0.104070 1.761360 -0.123970 
					CHANNELS 3 Zrotation Yrotation Xrotation
					End Site
					{
						OFFSET 0.000000 0.000000 0.000000 
					}
				}
			}
			JOINT LeftArm
			{
				OFFSET 3.362410 1.200890 -0.311210 
				CHANNELS 3 Zrotation Yrotation Xrotation
				JOINT LeftForeArm
				{
					OFFSET 4.983000 -0.000000 -0.000000 
					CHANNELS 3 Zrotation Yrotation Xrotation
					JOINT LeftHand
					{
						OFFSET 3.483560 -0.000000 -0.000000 
						CHANNELS 3 Zrotation Yrotation Xrotation
						JOINT LeftHandIndex1
						{
							OFFSET 0.715260 -0.000000 -0.000000 
							CHANNELS 3 Zrotation Yrotation Xrotation
							End Site
							{
								OFFSET 0.000000 0.000000 0.000000 
							}
						}
					}
				}
			}
			JOINT RightArm
			{
				OFFSET -3.136600 1.374050 -0.404650 
				CHANNELS 3 Zrotation Yrotation Xrotation
				JOINT RightForeArm
				{
					OFFSET -5.241900 -0.000000 -0.000000 
					CHANNELS 3 Zrotation Yrotation Xrotation
					JOINT RightHand
					{
						OFFSET -3.444170 -0.000000 -0.000000 
						CHANNELS 3 Zrotation Yrotation Xrotation
						JOINT RightHandIndex1
						{
							OFFSET -0.622530 -0.000000 -0.000000 
							CHANNELS 3 Zrotation Yrotation Xrotation
							End Site
							{
								OFFSET 0.000000 0.000000 0.000000 
							}
						}
					}
				}
			}
		}
	}
}
MOTION
Frames: 16
Frame Time: 0.041667
32.222052 17.031884 -37.833762 0.268213 -30.050931 15.762655 -21.984206 -19.687064 -24.080882 0.024386 12.394982 34.418826 -2.661339 12.338306 -14.191326 0.030600 -1.128400 -3.102200 24.725682 12.273674 -43.593763 -7.277288 -20.565680 57.261054 1.540660 -7.635749 1.378651 -1.040400 6.487200 -18.204800 0.768633 2.500804 -2.413351 -0.257599 1.656651 -4.055493 7.367023 -0.045804 12.348247 3.453200 -0.016000 6.072600 -97.942695 18.384983 29.893710 25.950811 -30.881824 -9.912694 1.494117 -4.074794 -14.375109 -7.125000 0.000000 0.000000 90.538357 -16.844780 43.215281 -27.094187 29.790807 -7.825808 0.772758 -0.972315 -38.114749 7.125000 0.000000 0.000000 
32.218563 17.049894 -37.813951 0.018130 -30.130698 15.860743 -21.801497 -19.403063 -23.978651 -0.014052 12.320505 34.242563 -2.636512 12.199675 -14.008599 0.044600 -1.363100 -3.748400 24.868598 12.075418 -44.360768 -7.607651 -20.817230 58.200497 1.342252 -6.596393 2.973542 -0.995400 6.349500 -17.802000 0.797546 2.511173 -2.414688 -0.224016 1.660180 -4.092210 7.365644 -0.129830 12.272253 3.435900 -0.053600 6.001200 -97.891905 18.286250 30.068616 25.751432 -30.689986 -9.791913 1.489386 -4.082717 -14.435110 -7.125000 0.000000 0.000000 90.517028 -16.876462 43.030831 -27.180166 29.872949 -7.887432 0.772788 -0.982404 -38.380903 7.125000 0.000000 0.000000 
32.213272 17.062613 -37.797742 -0.311122 -30.171208 16.028040 -21.520188 -19.113750 -23.971199 -0.061364 12.263211 34.076347 -2.777884 12.545261 -13.965027 0.109400 -2.132400 -5.871600 25.041370 12.046580 -45.133857 -7.932878 -21.067623 59.125415 1.157063 -5.610445 4.662482 -1.128100 6.746300 -18.965900 0.825444 2.506936 -2.444003 -0.267325 1.654665 -4.226246 7.344730 -0.144279 12.290172 3.389500 -0.054700 6.021600 -97.843903 18.308530 30.129269 25.621944 -30.556828 -9.709107 1.503397 -4.083431 -14.341616 -7.125000 0.000000 0.000000 90.594893 -16.940845 42.863463 -27.319233 30.005309 -7.973361 0.791256 -0.976693 -38.467722 7.125000 0.000000 0.000000 
32.206744 17.071843 -37.775680 -0.443775 -30.317027 16.000255 -21.495051 -18.803787 -23.792846 -0.106878 12.182056 33.906884 -2.902425 12.841400 -13.886640 0.127500 -2.302200 -6.341500 24.989573 12.002004 -45.746426 -8.245110 -21.290955 60.021391 0.931392 -4.351952 6.143491 -1.341300 7.332700 -20.704900 0.762186 2.545603 -2.420505 -0.753723 1.657762 -4.145064 7.350596 -0.173604 12.263239 3.340500 -0.047300 5.978800 -97.330044 18.298171 30.417427 25.540820 -30.453105 -9.659466 1.494959 -4.092237 -14.444586 -7.125000 0.000000 0.000000 91.068408 -16.806903 42.622535 -27.349178 30.115211 -8.009297 0.819214 -0.960398 -38.359632 7.125000 0.000000 0.000000 
32.200328 17.081524 -37.750242 -0.244794 -30.412700 15.753534 -21.842815 -18.562457 -23.512964 -0.129186 12.100789 33.780567 -2.998755 13.015080 -13.517307 0.149300 -2.489800 -6.861300 24.625076 11.729132 -46.327476 -8.537563 -21.492278 60.840997 0.702191 -2.999459 7.585950 -1.387300 7.452400 -21.062900 0.631654 2.444475 -2.368324 -1.557653 1.585477 -3.916333 7.400906 -0.161337 12.197293 3.320300 -0.011500 5.884600 -96.522898 18.289517 30.722411 25.528730 -30.404814 -9.654526 1.482515 -4.100411 -14.859209 -7.125000 0.000000 0.000000 91.654413 -16.523074 42.558904 -27.288948 30.189723 -8.001251 0.848426 -0.943337 -38.401221 7.125000 0.000000 0.000000 
32.194700 17.098633 -37.729530 -0.199374 -30.384369 15.619757 -21.990779 -18.241329 -23.395789 -0.137217 12.034638 33.645810 -3.030333 12.917099 -12.728802 0.179700 -2.730100 -7.528300 24.460209 11.421718 -46.936651 -8.783331 -21.665732 61.534300 0.513458 -1.850157 9.121686 -1.355800 7.370700 -20.818300 0.597349 2.315888 -2.369817 -1.856327 1.512374 -3.912180 7.375576 -0.175999 12.229881 3.287700 -0.009100 5.952800 -96.206156 18.310350 30.912278 25.564697 -30.411681 -9.673240 1.506307 -4.095843 -15.048844 -7.125000 0.000000 0.000000 91.871567 -16.384238 42.327570 -27.208734 30.142721 -7.963490 0.840311 -0.954897 -38.467585 7.125000 0.000000 0.000000 
32.188622 17.122608 -37.709269 -0.465636 -30.401558 15.712383 -21.807179 -17.828435 -23.400203 -0.147963 11.978138 33.500415 -3.033780 12.740728 -11.958120 0.217400 -3.001600 -8.283200 24.588958 11.313594 -47.566407 -8.986312 -21.825620 62.137993 0.336726 -0.749130 10.795491 -1.365300 7.395500 -20.892600 0.623208 2.344797 -2.392752 -1.824506 1.524975 -4.025128 7.317104 -0.298815 12.223903 3.274200 -0.076500 6.022700 -96.188592 18.358542 31.135445 25.610778 -30.438416 -9.696452 1.519297 -4.085749 -15.048359 -7.125000 0.000000 0.000000 92.023043 -16.326411 41.591489 -27.055342 29.982747 -7.887441 0.804104 -0.991271 -38.290453 7.125000 0.000000 0.000000 
32.183444 17.143995 -37.687433 -0.646462 -30.460415 15.843810 -21.643087 -17.618637 -23.294128 -0.176579 11.900032 33.307157 -3.042842 12.637240 -11.424531 0.349500 -3.798200 -10.509700 24.599221 11.250500 -48.278446 -9.176794 -21.995433 62.705598 0.142472 0.483741 12.778942 -1.432200 7.566900 -21.406000 0.636260 2.378750 -2.378692 -1.807248 1.539861 -3.959071 7.315068 -0.399651 12.068544 3.283200 -0.125300 5.914000 -96.181903 18.309954 31.172292 25.647588 -30.474278 -9.717770 1.519814 -4.086256 -14.971165 -7.125000 0.000000 0.000000 92.113176 -16.224279 41.031449 -26.948662 29.934046 -7.903876 0.822980 -1.027374 -38.195915 7.125000 0.000000 0.000000 
32.178716 17.166957 -37.669423 -0.699838 -30.559342 15.991086 -21.454484 -17.756300 -23.210213 -0.191207 11.835617 33.136041 -2.878709 12.071984 -10.855155 0.392200 -4.021500 -11.137200 24.451122 11.261283 -49.088387 -9.343272 -22.171775 63.216530 -0.064214 1.884441 14.810088 -1.483400 7.695000 -21.791500 0.653734 2.416370 -2.395306 -1.700746 1.558508 -3.982068 7.339960 -0.448886 12.033624 3.277300 -0.144200 5.890700 -96.264262 18.252688 31.091612 25.610434 -30.445107 -9.693418 1.537177 -4.091960 -14.721439 -7.125000 0.000000 0.000000 92.096749 -16.242318 40.908430 -26.948742 29.994945 -8.010527 0.887895 -1.051225 -38.550356 7.125000 0.000000 0.000000 
32.173989 17.211644 -37.649275 -0.606133 -30.667900 15.964109 -21.360079 -18.088750 -23.076304 -0.184743 11.782638 33.015856 -2.572953 11.120708 -10.205009 0.236400 -3.129300 -8.639000 24.179913 11.125685 -49.716380 -9.460943 -22.297030 63.547620 -0.234786 2.951462 16.917263 -1.293700 7.206700 -20.329200 0.666137 2.417143 -2.433743 -1.579139 1.559403 -4.142225 7.338713 -0.461511 12.110983 3.241300 -0.145600 5.960900 -96.388575 18.200999 30.576562 26.113358 -30.932517 -10.009289 1.695185 -4.083088 -15.280017 -7.125000 0.000000 0.000000 92.068822 -16.287819 40.965025 -26.947235 29.975114 -7.986582 0.945732 -0.985447 -38.881863 7.125000 0.000000 0.000000 
32.171062 17.238546 -37.621922 -0.530321 -30.706201 15.758280 -21.412835 -18.263393 -22.837728 -0.130932 11.778246 33.095717 -2.364966 10.445944 -9.582185 0.105800 -2.097600 -5.775400 23.969149 10.815533 -50.138736 -9.583438 -22.389339 63.850907 -0.387563 3.697003 19.212203 -1.131000 6.754500 -18.990100 0.689797 2.331141 -2.426278 -1.516714 1.517845 -4.181756 7.343654 -0.392547 12.083136 3.251500 -0.113100 5.964500 -96.535779 18.182126 30.811292 25.468347 -30.295780 -9.592525 1.593351 -4.088332 -14.172807 -7.125000 0.000000 0.000000 91.866833 -16.196349 40.993334 -26.837264 29.795580 -7.879026 0.869830 -1.024165 -38.619864 7.125000 0.000000 0.000000 
32.167010 17.269950 -37.599523 -0.527877 -30.775743 15.678673 -21.495129 -18.050412 -22.862616 -0.053604 11.827440 33.276425 -2.318664 10.161267 -8.600294 0.077100 -1.791200 -4.929000 23.838846 10.653071 -50.533430 -9.641933 -22.460090 64.022247 -0.556997 4.664113 21.312667 -1.087700 6.628200 -18.618500 0.704776 2.259647 -2.414389 -1.478555 1.479747 -4.129031 7.377097 -0.280762 12.067583 3.306400 -0.060800 6.008300 -96.680778 17.923759 30.586800 25.583365 -30.395708 -9.666716 1.645659 -4.114985 -14.301803 -7.125000 0.000000 0.000000 91.688464 -15.987217 40.957784 -26.631072 29.630742 -7.834630 0.901237 -1.050729 -38.407986 7.125000 0.000000 0.000000 
32.159243 17.297190 -37.587929 -0.483928 -30.894755 15.658555 -21.577630 -17.720806 -23.195437 0.063277 11.952434 33.609896 -2.246836 9.795523 -7.395587 0.109500 -2.133700 -5.875200 23.652509 10.655455 -51.014192 -9.706884 -22.550116 64.175269 -0.710703 5.313135 23.407979 -0.830600 5.814400 -16.246900 0.696869 2.242610 -2.428220 -1.483951 1.470613 -4.177038 7.446540 -0.243950 12.111060 3.359100 -0.040800 6.066600 -96.725178 17.736151 30.427901 25.786998 -30.586525 -9.799881 1.662148 -4.137105 -14.520771 -7.125000 0.000000 0.000000 91.768147 -15.942820 40.939148 -26.614276 29.607324 -7.811891 0.901163 -1.042460 -38.642791 7.125000 0.000000 0.000000 
32.151589 17.323754 -37.573972 -0.342130 -31.034024 15.471929 -21.791397 -17.486089 -23.503359 0.201172 12.119351 34.052883 -2.443100 10.227699 -6.328644 0.380000 -3.959000 -10.961500 23.378126 10.595620 -51.355473 -9.769662 -22.617237 64.233875 -0.867620 5.428356 25.679754 -0.629500 5.076600 -14.127100 0.684922 2.238427 -2.457303 -1.500775 1.470234 -4.437807 7.435501 -0.296591 12.088386 3.339400 -0.070600 6.000800 -96.761953 17.713698 30.114328 25.446151 -30.242418 -9.584039 1.644509 -4.127790 -14.434636 -7.125000 0.000000 0.000000 91.866191 -16.241101 40.877661 -26.762507 29.681958 -7.842680 0.799696 -1.094167 -38.675943 7.125000 0.000000 0.000000 
32.146974 17.351557 -37.560689 -0.243696 -31.155917 15.316555 -21.962338 -17.282729 -23.808344 0.352761 12.304710 34.553396 -2.606355 10.618548 -5.459919 0.648500 -5.151200 -14.340400 23.159995 10.494501 -51.594934 -9.779295 -22.647991 64.126218 -1.019235 5.284282 27.633197 -0.584900 4.896900 -13.614800 0.701249 2.175097 -2.471297 -1.414424 1.442648 -4.659030 7.370032 -0.262306 11.952773 3.297200 -0.062500 5.838800 -96.945296 17.638407 29.677728 25.223846 -30.020463 -9.446237 1.654779 -4.126816 -14.518918 -7.125000 0.000000 0.000000 91.729899 -16.490853 40.850594 -26.833229 29.701362 -7.834961 0.803618 -1.059658 -38.175820 7.125000 0.000000 0.000000 
32.142922 17.382060 -37.558551 -0.412532 -31.106837 15.382784 -21.837112 -16.809214 -24.297912 0.520523 12.506354 35.099003 -2.493893 10.207736 -4.430170 0.647200 -5.146300 -14.326200 23.224930 10.433070 -51.786950 -9.722358 -22.645054 63.863091 -1.167006 5.052787 29.291244 -0.539900 4.707800 -13.076900 0.744518 2.074880 -2.469956 -1.245792 1.395249 -4.743709 7.423917 -0.189250 11.796345 3.371600 -0.032400 5.741400 -97.193559 17.455547 29.654318 26.022896 -30.806223 -9.957889 1.656069 -4.161197 -14.933935 -7.125000 0.000000 0.000000 91.443979 -16.384984 40.973267 -26.763754 29.612346 -7.802210 0.810304 -1.063490 -37.869913 7.125000 0.000000 0.000000 
